<svg width="25" height="29" viewBox="0 0 25 29" fill="none" xmlns="http://www.w3.org/2000/svg">
<path d="M21.3738 3.00294C20.7651 2.97233 20.1447 3.18112 19.6332 3.61477L18.2607 4.77791L12.0006 10.0905L5.79901 4.82834C5.71259 4.73139 5.59849 4.67368 5.47786 4.66586H5.60281L4.37088 3.61925C3.8591 3.18452 3.23773 2.97457 2.62842 3.00518C2.01912 3.03579 1.42236 3.30651 0.959178 3.83104C0.370788 4.49695 0.00546295 5.42837 0.00546295 6.44979V8.41974C-0.00182098 8.47584 -0.00182098 8.53286 0.00546295 8.58895V21.992C0.00546295 23.0942 0.794553 24 1.75476 24H5.50324C5.63579 24 5.7629 23.9396 5.85663 23.832C5.95035 23.7244 6.00301 23.5785 6.00303 23.4263V13.8869L11.7038 18.7245C11.7898 18.7972 11.8938 18.8365 12.0006 18.8365C12.1074 18.8365 12.2114 18.7972 12.2973 18.7245L17.9982 13.8869V23.4263C17.9982 23.5785 18.0508 23.7244 18.1446 23.832C18.2383 23.9396 18.3654 24 18.498 24H22.2465C23.2066 24 23.9958 23.0942 23.9958 21.992V8.57774C24.0014 8.52828 24.0014 8.47818 23.9958 8.4287V6.44979C23.9958 5.44092 23.6411 4.51381 23.0606 3.84673C23.0438 3.82746 23.0382 3.82213 23.0449 3.82991C23.044 3.8288 23.043 3.82767 23.0421 3.82655C22.5789 3.30319 21.9823 3.03354 21.3738 3.00294ZM21.3191 4.14928C21.6971 4.16629 22.0636 4.33086 22.3411 4.64456C22.3505 4.65528 22.3575 4.66336 22.3528 4.65801C22.7509 5.11543 22.9962 5.74895 22.9962 6.44979V8.22028L18.9978 11.6122V5.64075C18.998 5.6213 18.9973 5.60185 18.9959 5.58247L20.2267 4.53812C20.2271 4.53812 20.2274 4.53812 20.2277 4.53812C20.5519 4.26321 20.9411 4.13226 21.3191 4.14928ZM2.68309 4.15264C3.06151 4.13564 3.45201 4.26592 3.7764 4.54147L5.00538 5.58472C5.00394 5.60335 5.00329 5.62204 5.00344 5.64075V11.6122L1.00506 8.22028V6.44979C1.00506 5.74085 1.25583 5.10652 1.66105 4.64793C1.93856 4.33366 2.30467 4.16965 2.68309 4.15264ZM17.9982 6.42738V12.4604L12.0006 17.5489L6.00303 12.4604V6.4285L11.7038 11.266C11.7898 11.3387 11.8938 11.3781 12.0006 11.3781C12.1074 11.3781 12.2114 11.3387 12.2973 11.266L17.9982 6.42738ZM1.00506 9.64671L5.00344 13.0399V22.8525H1.75476C1.33452 22.8525 1.00506 22.4744 1.00506 21.992V9.64671ZM22.9962 9.64671V21.992C22.9962 22.4744 22.6667 22.8525 22.2465 22.8525H18.9978V13.0399L22.9962 9.64671Z" fill="white"/>
</svg>
