<svg width="25" height="28" viewBox="0 0 25 28" fill="none" xmlns="http://www.w3.org/2000/svg">
<path d="M24.0663 12.4965C24.0663 13.9687 24.033 15.445 24.0759 16.9171C24.1473 19.5229 22.303 21.5365 19.9536 22.4334C19.01 22.7929 18.0187 22.9833 16.9941 22.9833C13.7869 22.9874 10.5748 23.0255 7.36758 22.9706C4.95141 22.9282 2.96414 22.0315 1.53922 20.2632C0.791016 19.3326 0.433594 18.275 0.433594 17.1286C0.433594 14.0955 0.433594 11.0667 0.433594 8.0336C0.433594 5.55892 1.7918 3.82876 4.2032 2.70352C5.25164 2.21704 6.39062 2.00976 7.57727 2.00553C10.6892 2.00553 13.8059 1.9886 16.9179 2.01399C19.3341 2.03091 21.3499 2.85157 22.8368 4.57751C23.666 5.542 24.0663 6.65032 24.0663 7.86863C24.0663 9.40843 24.0663 10.9525 24.0663 12.4965ZM2.19211 12.4965C2.19211 14.049 2.19211 15.5972 2.19211 17.1497C2.19211 17.8435 2.3732 18.495 2.77828 19.083C3.84102 20.627 5.44703 21.38 7.43906 21.4096C10.6368 21.4519 13.8393 21.4265 17.0418 21.4181C17.8281 21.4181 18.5906 21.2742 19.3007 20.9739C21.2355 20.1532 22.3173 18.8461 22.3078 16.8833C22.2887 13.8798 22.303 10.8763 22.303 7.87286C22.303 7.02258 22.0314 6.24422 21.4643 5.55892C20.3682 4.24331 18.8527 3.59609 17.0418 3.57917C13.8488 3.54533 10.6559 3.56648 7.46289 3.57071C6.78141 3.57071 6.12375 3.69339 5.48516 3.9049C3.73141 4.48444 2.10156 5.95234 2.17781 8.11398C2.235 9.57767 2.19211 11.0371 2.19211 12.4965Z" fill="white"/>
<path d="M12.2765 16.9808C9.20262 16.9808 6.7245 14.8064 6.71973 12.0991C6.71497 9.43405 9.21216 7.25123 12.2669 7.25123C15.3312 7.247 17.8189 9.42554 17.8236 12.1118C17.8236 14.7937 15.3408 16.9765 12.2765 16.9808ZM12.2765 15.4155C14.3686 15.4155 16.0651 13.9308 16.0604 12.1033C16.0556 10.2928 14.359 8.81218 12.2765 8.81218C10.1843 8.81218 8.47825 10.2885 8.47825 12.1118C8.48301 13.9392 10.1843 15.4198 12.2765 15.4155Z" fill="white"/>
<path d="M18.467 5.77075C19.1104 5.77075 19.6346 6.25723 19.6346 6.85369C19.6299 7.45015 19.1009 7.9324 18.4575 7.92817C17.8237 7.92394 17.3042 7.4417 17.3042 6.85792C17.2995 6.26146 17.8237 5.77075 18.467 5.77075Z" fill="white"/>
</svg>
