<svg width="25" height="29" viewBox="0 0 25 29" fill="none" xmlns="http://www.w3.org/2000/svg">
<path d="M13.3814 23.9907C14.0005 23.9907 14.2537 23.3816 14.2465 22.6182C14.215 19.7428 14.9725 18.1948 16.3399 20.2122C17.8527 22.4443 18.1658 23.9907 20.0029 23.9907H23.2562C24.0777 23.9907 24.401 23.6006 24.401 22.9887C24.401 21.6942 22.9563 19.4098 21.7323 17.7328C20.0182 15.3854 19.9378 15.3299 21.414 12.5038C23.2451 8.99537 25.6403 4.49998 23.5216 4.49998H19.4743C18.6894 4.49998 18.6324 5.15246 18.3529 6.12445C17.3413 9.64486 15.4188 14.2048 14.6888 13.5074C13.9253 12.7798 14.275 9.89836 14.333 5.61596C14.3482 4.48498 14.3441 3.70949 13.1729 3.3075C12.5335 3.08999 11.9113 3 11.3338 3C9.02292 3 7.42878 4.42948 8.33463 4.67848C9.93182 5.11796 9.7783 10.2164 9.4062 12.4183C8.75757 16.2523 6.3196 9.38238 5.30395 5.96096C5.05893 5.13897 4.9837 4.49998 4.10937 4.49998H0.800117C0.299917 4.49998 0 4.73997 0 5.27396C0 6.17696 3.00933 15.3538 5.88243 19.9287C8.68437 24.3911 11.4538 23.9907 13.3814 23.9907Z" fill="white"/>
</svg>
