<svg width="25" height="29" viewBox="0 0 25 29" fill="none" xmlns="http://www.w3.org/2000/svg">
<path d="M11.0365 14.0473C10.4243 13.5833 9.74472 12.9308 9.45031 12.3554C9.40488 12.2811 9.3142 12.0952 9.45031 11.9465C9.72282 11.6491 9.76824 11.6299 10.0625 11.3518C10.2661 11.1467 10.4257 10.9609 10.3569 10.7942L9.33756 8.61785C9.24689 8.46916 8.97437 8.44993 8.65806 8.43199C8.3857 8.43199 8.09129 8.43199 7.88787 8.46916C7.43534 8.5999 6.50535 9.60349 6.39261 10.3289C6.14368 11.9094 7.88787 14.0114 9.6336 15.3136C11.3791 16.6338 14.0753 17.881 15.9792 17.5273C16.8637 17.3605 17.9973 16.5235 18.0866 16.1327C18.1319 15.966 18.1084 15.7237 18.0646 15.5008C18.0427 15.2405 17.9737 15.0547 17.7923 14.9803L15.4812 14.1063C15.2762 14.0126 15.0726 14.0884 14.8692 14.2921C14.6202 14.5702 14.5058 14.6817 14.2115 14.9803C14.0534 15.147 13.9391 15.2598 13.759 15.2777C13.554 15.315 13.2831 15.2226 13.2377 15.2226C12.5096 15.0149 11.6705 14.5125 11.0365 14.0473ZM3.42255 20.7251L4.73771 17.9912C3.28634 16.6146 2.4033 14.8099 2.4033 12.8386C2.4033 8.48582 6.70888 4.97131 12.0133 4.97131C17.3162 4.97131 21.5999 8.4871 21.5999 12.8386C21.5999 17.1914 17.3162 20.7251 12.0133 20.7251C9.88239 20.7251 7.93329 20.1676 6.3472 19.1999L3.42255 20.7251ZM1.81304 18.0476L0 24L6.48185 21.5813C8.1367 22.2876 10.017 22.6977 12.0118 22.6977C18.6283 22.6977 24 18.2885 24 12.8399C24 7.40916 18.6283 3 12.0118 3C5.37023 3 0 7.40789 0 12.8399C0 14.7548 0.679511 16.5402 1.81304 18.0476Z" fill="#FFFAFA"/>
</svg>
