<svg width="225" height="119" viewBox="0 0 225 119" fill="none" xmlns="http://www.w3.org/2000/svg">
<path d="M2.6 2.1C0.8 3.5 0 5.1 0 7.3C0 10 2.3 12.7 18.3 28.5C28.3 38.4 52.9 62.8 73 82.7C104 113.5 110 119 112.4 119C114.9 119 123.2 111.2 168.9 65.8C198.4 36.5 223.1 11.3 223.9 9.8C225 7.6 225.1 6.5 224.2 4.5C222.8 1.5 218.4 -0.500002 215.8 0.699998C214.8 1.1 191.1 24 163.2 51.6L112.4 101.7L60.8 50.9C28.1 18.6 8.5 -1.77324e-06 7.2 -1.77324e-06C6.2 -1.77324e-06 4.1 0.899998 2.6 2.1Z" fill="#FFFBFB"/>
</svg>
